<mxfile host="Electron" modified="2023-06-27T16:37:08.503Z" agent="Mozilla/5.0 (Windows NT 10.0; Win64; x64) AppleWebKit/537.36 (KHTML, like Gecko) draw.io/21.5.0 Chrome/112.0.5615.204 Electron/24.5.1 Safari/537.36" etag="ebEywL8nRvj0QhvVizeD" version="21.5.0" type="device" pages="5">
  <diagram name="Landing page" id="mWaqS2Y9ntpzHhFaPzYa">
    <mxGraphModel dx="1434" dy="836" grid="1" gridSize="10" guides="1" tooltips="1" connect="1" arrows="1" fold="1" page="1" pageScale="1" pageWidth="827" pageHeight="1169" background="none" math="0" shadow="0">
      <root>
        <mxCell id="0" />
        <mxCell id="1" parent="0" />
        <mxCell id="iMR_H9Wg8E-RTI5bTU1J-1" value="Landing page" style="text;html=1;align=center;verticalAlign=middle;resizable=0;points=[];autosize=1;strokeColor=none;fillColor=none;" parent="1" vertex="1">
          <mxGeometry x="430" y="40" width="100" height="30" as="geometry" />
        </mxCell>
        <mxCell id="iMR_H9Wg8E-RTI5bTU1J-2" value="" style="rounded=0;whiteSpace=wrap;html=1;" parent="1" vertex="1">
          <mxGeometry y="70" width="960" height="640" as="geometry" />
        </mxCell>
        <mxCell id="3REA4OK3sEmO4MqTveD6-1" value="Menü" style="rounded=0;whiteSpace=wrap;html=1;" parent="1" vertex="1">
          <mxGeometry y="70" width="960" height="50" as="geometry" />
        </mxCell>
        <mxCell id="3REA4OK3sEmO4MqTveD6-2" value="SETUP-FLICK AG" style="text;html=1;strokeColor=default;fillColor=none;align=center;verticalAlign=middle;whiteSpace=wrap;rounded=0;" parent="1" vertex="1">
          <mxGeometry x="209" y="128" width="210" height="30" as="geometry" />
        </mxCell>
        <mxCell id="3REA4OK3sEmO4MqTveD6-3" value="Beschreibung Setup-Flick AG" style="text;html=1;strokeColor=default;fillColor=none;align=center;verticalAlign=middle;whiteSpace=wrap;rounded=0;" parent="1" vertex="1">
          <mxGeometry x="209" y="171" width="210" height="98" as="geometry" />
        </mxCell>
        <mxCell id="3REA4OK3sEmO4MqTveD6-4" value="Footer" style="rounded=0;whiteSpace=wrap;html=1;" parent="1" vertex="1">
          <mxGeometry y="667" width="960" height="50" as="geometry" />
        </mxCell>
        <mxCell id="3REA4OK3sEmO4MqTveD6-5" value="Vorher/Nachher (Setup kaputt, Setup wieder heil)" style="rounded=0;whiteSpace=wrap;html=1;" parent="1" vertex="1">
          <mxGeometry x="600" y="141" width="330" height="113" as="geometry" />
        </mxCell>
      </root>
    </mxGraphModel>
  </diagram>
  <diagram id="AtmAIJY-KvhIUgu4S1Vk" name="Angebote">
    <mxGraphModel dx="1434" dy="836" grid="1" gridSize="10" guides="1" tooltips="1" connect="1" arrows="1" fold="1" page="1" pageScale="1" pageWidth="827" pageHeight="1169" math="0" shadow="0">
      <root>
        <mxCell id="0" />
        <mxCell id="1" parent="0" />
        <mxCell id="iZe4E6hllt8L43N8hu4n-1" value="Angebote" style="text;html=1;align=center;verticalAlign=middle;resizable=0;points=[];autosize=1;strokeColor=none;fillColor=none;" parent="1" vertex="1">
          <mxGeometry x="445" y="40" width="70" height="30" as="geometry" />
        </mxCell>
        <mxCell id="iZe4E6hllt8L43N8hu4n-2" value="" style="rounded=0;whiteSpace=wrap;html=1;" parent="1" vertex="1">
          <mxGeometry y="75" width="960" height="540" as="geometry" />
        </mxCell>
        <mxCell id="iZe4E6hllt8L43N8hu4n-3" value="Menü" style="rounded=0;whiteSpace=wrap;html=1;" parent="1" vertex="1">
          <mxGeometry y="75" width="960" height="48" as="geometry" />
        </mxCell>
        <mxCell id="iZe4E6hllt8L43N8hu4n-4" value="SETUP-FLICK AG" style="text;html=1;strokeColor=default;fillColor=none;align=center;verticalAlign=middle;whiteSpace=wrap;rounded=0;" parent="1" vertex="1">
          <mxGeometry x="375" y="128" width="210" height="30" as="geometry" />
        </mxCell>
        <mxCell id="iZe4E6hllt8L43N8hu4n-6" value="Footer" style="rounded=0;whiteSpace=wrap;html=1;" parent="1" vertex="1">
          <mxGeometry y="567" width="960" height="48" as="geometry" />
        </mxCell>
        <mxCell id="iZe4E6hllt8L43N8hu4n-7" value="Carousel mit Leistungen, die wir anbieten, unten an Bild Text, der gezeigte Leistung beschreibt" style="rounded=0;whiteSpace=wrap;html=1;" parent="1" vertex="1">
          <mxGeometry x="375" y="175" width="210" height="100" as="geometry" />
        </mxCell>
      </root>
    </mxGraphModel>
  </diagram>
  <diagram id="xeMF3uKlVs0S6zSlI7LI" name="Über mich">
    <mxGraphModel dx="1434" dy="836" grid="1" gridSize="10" guides="1" tooltips="1" connect="1" arrows="1" fold="1" page="1" pageScale="1" pageWidth="827" pageHeight="1169" math="0" shadow="0">
      <root>
        <mxCell id="0" />
        <mxCell id="1" parent="0" />
        <mxCell id="hhcvXGrNEATkCqpX6Bia-1" value="Über uns" style="text;html=1;align=center;verticalAlign=middle;resizable=0;points=[];autosize=1;strokeColor=none;fillColor=none;" parent="1" vertex="1">
          <mxGeometry x="445" y="40" width="70" height="30" as="geometry" />
        </mxCell>
        <mxCell id="hhcvXGrNEATkCqpX6Bia-2" value="" style="rounded=0;whiteSpace=wrap;html=1;" parent="1" vertex="1">
          <mxGeometry y="75" width="960" height="540" as="geometry" />
        </mxCell>
        <mxCell id="hhcvXGrNEATkCqpX6Bia-3" value="Menü" style="rounded=0;whiteSpace=wrap;html=1;" parent="1" vertex="1">
          <mxGeometry y="75" width="960" height="48" as="geometry" />
        </mxCell>
        <mxCell id="hhcvXGrNEATkCqpX6Bia-4" value="SETUP-FLICK AG" style="text;html=1;strokeColor=default;fillColor=none;align=center;verticalAlign=middle;whiteSpace=wrap;rounded=0;" parent="1" vertex="1">
          <mxGeometry x="375" y="128" width="210" height="30" as="geometry" />
        </mxCell>
        <mxCell id="hhcvXGrNEATkCqpX6Bia-5" value="Footer" style="rounded=0;whiteSpace=wrap;html=1;" parent="1" vertex="1">
          <mxGeometry y="567" width="960" height="48" as="geometry" />
        </mxCell>
        <mxCell id="hhcvXGrNEATkCqpX6Bia-6" value="Beschreibung Firma, Standort etc." style="rounded=0;whiteSpace=wrap;html=1;" parent="1" vertex="1">
          <mxGeometry x="375" y="175" width="210" height="100" as="geometry" />
        </mxCell>
      </root>
    </mxGraphModel>
  </diagram>
  <diagram id="mFQ2UQNHxR31fAEmf6An" name="Kontakt">
    <mxGraphModel dx="1434" dy="836" grid="1" gridSize="10" guides="1" tooltips="1" connect="1" arrows="1" fold="1" page="1" pageScale="1" pageWidth="827" pageHeight="1169" math="0" shadow="0">
      <root>
        <mxCell id="0" />
        <mxCell id="1" parent="0" />
        <mxCell id="Td2AGtQqqQ938ElZwjeH-1" value="Kontakt" style="text;html=1;align=center;verticalAlign=middle;resizable=0;points=[];autosize=1;strokeColor=none;fillColor=none;" parent="1" vertex="1">
          <mxGeometry x="450" y="40" width="60" height="30" as="geometry" />
        </mxCell>
        <mxCell id="Td2AGtQqqQ938ElZwjeH-2" value="" style="rounded=0;whiteSpace=wrap;html=1;" parent="1" vertex="1">
          <mxGeometry y="75" width="960" height="540" as="geometry" />
        </mxCell>
        <mxCell id="Td2AGtQqqQ938ElZwjeH-3" value="Menü" style="rounded=0;whiteSpace=wrap;html=1;" parent="1" vertex="1">
          <mxGeometry y="75" width="960" height="48" as="geometry" />
        </mxCell>
        <mxCell id="Td2AGtQqqQ938ElZwjeH-4" value="SETUP-FLICK AG" style="text;html=1;strokeColor=default;fillColor=none;align=center;verticalAlign=middle;whiteSpace=wrap;rounded=0;" parent="1" vertex="1">
          <mxGeometry x="375" y="128" width="210" height="30" as="geometry" />
        </mxCell>
        <mxCell id="Td2AGtQqqQ938ElZwjeH-5" value="Footer" style="rounded=0;whiteSpace=wrap;html=1;" parent="1" vertex="1">
          <mxGeometry y="567" width="960" height="48" as="geometry" />
        </mxCell>
        <mxCell id="Td2AGtQqqQ938ElZwjeH-6" value="Kontaktformular" style="rounded=0;whiteSpace=wrap;html=1;" parent="1" vertex="1">
          <mxGeometry x="375" y="242" width="210" height="100" as="geometry" />
        </mxCell>
        <mxCell id="Td2AGtQqqQ938ElZwjeH-7" value="Text für Kontaktformular" style="rounded=0;whiteSpace=wrap;html=1;" parent="1" vertex="1">
          <mxGeometry x="375" y="169" width="210" height="60" as="geometry" />
        </mxCell>
      </root>
    </mxGraphModel>
  </diagram>
  <diagram id="bxbyUR-GfvoJkbvjvRY7" name="Impressum">
    <mxGraphModel dx="1434" dy="836" grid="1" gridSize="10" guides="1" tooltips="1" connect="1" arrows="1" fold="1" page="1" pageScale="1" pageWidth="827" pageHeight="1169" math="0" shadow="0">
      <root>
        <mxCell id="0" />
        <mxCell id="1" parent="0" />
        <mxCell id="70A5VqiNT3aa2ZGu3vxF-1" value="Impressum" style="text;html=1;align=center;verticalAlign=middle;resizable=0;points=[];autosize=1;strokeColor=none;fillColor=none;" parent="1" vertex="1">
          <mxGeometry x="440" y="40" width="80" height="30" as="geometry" />
        </mxCell>
        <mxCell id="70A5VqiNT3aa2ZGu3vxF-2" value="" style="rounded=0;whiteSpace=wrap;html=1;" parent="1" vertex="1">
          <mxGeometry y="75" width="960" height="540" as="geometry" />
        </mxCell>
        <mxCell id="70A5VqiNT3aa2ZGu3vxF-3" value="Menü" style="rounded=0;whiteSpace=wrap;html=1;" parent="1" vertex="1">
          <mxGeometry y="75" width="960" height="48" as="geometry" />
        </mxCell>
        <mxCell id="70A5VqiNT3aa2ZGu3vxF-4" value="SETUP-FLICK AG" style="text;html=1;strokeColor=default;fillColor=none;align=center;verticalAlign=middle;whiteSpace=wrap;rounded=0;" parent="1" vertex="1">
          <mxGeometry x="375" y="128" width="210" height="30" as="geometry" />
        </mxCell>
        <mxCell id="70A5VqiNT3aa2ZGu3vxF-5" value="Footer" style="rounded=0;whiteSpace=wrap;html=1;" parent="1" vertex="1">
          <mxGeometry y="567" width="960" height="48" as="geometry" />
        </mxCell>
        <mxCell id="70A5VqiNT3aa2ZGu3vxF-6" value="Text Impressum" style="rounded=0;whiteSpace=wrap;html=1;" parent="1" vertex="1">
          <mxGeometry x="375" y="175" width="210" height="100" as="geometry" />
        </mxCell>
      </root>
    </mxGraphModel>
  </diagram>
</mxfile>
